#VRML V2.0 utf8

Shape {
  appearance Appearance {
    material Material {
      diffuseColor 1.0000 1.0000 1.0000
      specularColor 0.5020 0.5020 0.5020
      ambientIntensity 0.2
      transparency 0.0000
      shininess 0.5
    }
  }
  geometry IndexedFaceSet {
    ccw TRUE
    solid FALSE
    coord DEF co Coordinate {
      point [
        -0.590551 0.590551 -0.019685,
        -0.590551 -0.590551 -0.019685,
        -0.590551 0.590551 0.000000,
        -0.590551 -0.590551 0.000000,
        -0.196850 0.590551 -0.019685,
        -0.196850 0.590551 0.000000,
        -0.196850 -0.590551 -0.019685,
        -0.196850 -0.590551 0.000000,
        0.590551 -0.590551 -0.019685,
        0.590551 0.590551 -0.019685,
        0.590551 -0.590551 0.000000,
        0.590551 0.590551 0.000000,
        0.196850 -0.590551 -0.019685,
        0.196850 -0.590551 0.000000,
        0.196850 0.590551 -0.019685,
        0.196850 0.590551 0.000000,
      ]
    }
    coordIndex [
      0, 1, 2, -1,
      2, 1, 3, -1,
      4, 0, 5, -1,
      5, 0, 2, -1,
      6, 4, 7, -1,
      7, 4, 5, -1,
      1, 6, 3, -1,
      3, 6, 7, -1,
      4, 6, 0, -1,
      0, 6, 1, -1,
      7, 5, 3, -1,
      3, 5, 2, -1,
      8, 9, 10, -1,
      10, 9, 11, -1,
      12, 8, 13, -1,
      13, 8, 10, -1,
      14, 12, 15, -1,
      15, 12, 13, -1,
      9, 14, 11, -1,
      11, 14, 15, -1,
      12, 14, 8, -1,
      8, 14, 9, -1,
      15, 13, 11, -1,
      11, 13, 10, -1,
    ]
  }
}

Shape {
  appearance Appearance {
    material Material {
      diffuseColor 0.7529 0.7529 0.7529
      specularColor 0.3765 0.3765 0.3765
      ambientIntensity 0.2
      transparency 0.0000
      shininess 0.5
    }
  }
  geometry IndexedFaceSet {
    ccw TRUE
    solid FALSE
    coord DEF co Coordinate {
      point [
        -0.590551 0.590551 0.000000,
        -0.590551 -0.590551 0.000000,
        0.590551 -0.590551 0.000000,
        0.590551 0.590551 0.000000,
        -0.026577 0.590551 0.000000,
        -0.018895 -0.023561 0.000000,
        -0.026577 -0.032683 0.000000,
        -0.018895 -0.032204 0.000000,
        0.023356 -0.032204 0.000000,
        -0.016974 0.037894 0.000000,
        0.012793 0.037894 0.000000,
        0.012793 0.011968 0.000000,
        0.038720 -0.028122 0.000000,
        0.038720 -0.019480 0.000000,
        0.023356 0.046537 0.000000,
        0.012793 0.003326 0.000000,
        0.012793 -0.023561 0.000000,
        -0.015054 0.003326 0.000000,
        -0.015054 0.011968 0.000000,
        0.077721 -0.029531 0.000000,
        0.104017 -0.032204 0.000000,
        0.070089 -0.032157 0.000000,
        0.065016 -0.032683 0.000000,
        -0.016974 0.046537 0.000000,
        0.093139 0.025798 0.000000,
        0.088524 0.033159 0.000000,
        0.133784 0.046537 0.000000,
        0.064913 0.037984 0.000000,
        0.070807 0.035857 0.000000,
        0.040131 -0.020262 0.000000,
        0.076257 0.032211 0.000000,
        0.081012 0.026962 0.000000,
        0.086732 0.006326 0.000000,
        0.085935 -0.002198 0.000000,
        0.083796 -0.008970 0.000000,
        0.066274 -0.023698 0.000000,
        0.058930 -0.024522 0.000000,
        0.072012 -0.021585 0.000000,
        0.076844 -0.018328 0.000000,
        0.080539 -0.014430 0.000000,
        0.048478 -0.023361 0.000000,
        0.084258 0.020882 0.000000,
        0.086357 0.012453 0.000000,
        0.081415 0.039996 0.000000,
        0.144347 0.046537 0.000000,
        0.144347 -0.032204 0.000000,
        0.590551 -0.032683 0.000000,
        0.084055 -0.025486 0.000000,
        0.089969 -0.019259 0.000000,
        0.104017 -0.023561 0.000000,
        0.094164 -0.011772 0.000000,
        0.133784 -0.023561 0.000000,
        0.096533 -0.003438 0.000000,
        0.097295 0.005681 0.000000,
        0.096162 0.016876 0.000000,
        0.073936 0.044301 0.000000,
        0.065158 0.046851 0.000000,
        0.057250 0.047497 0.000000,
        0.047824 0.046846 0.000000,
        0.038720 0.044376 0.000000,
        0.038720 0.033813 0.000000,
        0.047589 0.037611 0.000000,
        0.057160 0.038855 0.000000,
        0.060385 -0.033164 0.000000,
        0.058233 -0.033127 0.000000,
        -0.026577 -0.590551 0.000000,
        0.055070 -0.032683 0.000000,
        -0.590551 -0.032683 0.000000,
        0.047113 -0.031569 0.000000,
        -0.103396 -0.032204 0.000000,
        -0.093703 -0.010622 0.000000,
        -0.089187 -0.017665 0.000000,
        -0.162931 -0.032204 0.000000,
        -0.174455 -0.032204 0.000000,
        -0.143727 0.046537 0.000000,
        -0.133164 0.046537 0.000000,
        -0.082706 -0.023871 0.000000,
        -0.074485 -0.028649 0.000000,
        -0.065412 -0.031353 0.000000,
        -0.055669 -0.032204 0.000000,
        -0.034259 -0.032204 0.000000,
        -0.034259 0.046537 0.000000,
        -0.056480 0.046537 0.000000,
        -0.085720 0.036270 0.000000,
        -0.091289 0.030096 0.000000,
        -0.094948 0.023324 0.000000,
        -0.067855 0.045321 0.000000,
        -0.077068 0.042086 0.000000,
        -0.085638 0.036342 0.000000,
        -0.114919 -0.032204 0.000000,
        -0.122436 -0.010118 0.000000,
        -0.154965 -0.010118 0.000000,
        -0.097063 0.015566 0.000000,
        -0.097635 0.008157 0.000000,
        -0.096530 -0.002381 0.000000,
        0.570866 -0.570866 0.767717,
        -0.117740 -0.091058 0.767717,
        -0.570866 -0.570866 0.767717,
        -0.141746 -0.091058 0.767717,
        0.031024 0.106687 0.767717,
        0.042633 0.102631 0.767717,
        0.570866 0.570866 0.767717,
        -0.117740 0.108193 0.767717,
        -0.127080 0.108193 0.767717,
        -0.570866 0.570866 0.767717,
        -0.134071 0.102713 0.767717,
        -0.158815 0.088177 0.767717,
        -0.016604 0.098910 0.767717,
        -0.005463 0.104552 0.767717,
        0.123982 0.089604 0.767717,
        0.134635 0.098910 0.767717,
        -0.141746 0.076160 0.767717,
        -0.158619 0.064646 0.767717,
        -0.182248 0.054404 0.767717,
        -0.187357 0.052979 0.767717,
        -0.187357 0.076985 0.767717,
        -0.013119 -0.087872 0.767717,
        -0.022984 -0.081328 0.767717,
        0.016694 0.108193 0.767717,
        0.193871 0.102631 0.767717,
        0.204093 0.095853 0.767717,
        0.212029 0.087233 0.767717,
        0.220271 0.072427 0.767717,
        0.007388 0.107627 0.767717,
        0.145775 0.104552 0.767717,
        0.158626 0.107627 0.767717,
        0.054911 -0.075677 0.767717,
        0.044764 -0.084360 0.767717,
        0.118548 -0.070710 0.767717,
        0.033851 -0.089859 0.767717,
        0.021388 -0.092879 0.767717,
        -0.044274 0.056555 0.767717,
        -0.036178 0.076812 0.767717,
        -0.027256 0.089604 0.767717,
        0.052854 0.095853 0.767717,
        0.060790 0.087233 0.767717,
        0.069033 0.072427 0.767717,
        0.167933 0.108193 0.767717,
        0.182262 0.106687 0.767717,
        0.228923 -0.018080 0.767717,
        0.223895 -0.043111 0.767717,
        0.215464 -0.062978 0.767717,
        0.206150 -0.075677 0.767717,
        0.109934 -0.054801 0.767717,
        0.072656 -0.043111 0.767717,
        0.064225 -0.062978 0.767717,
        -0.032690 -0.070710 0.767717,
        -0.041304 -0.054801 0.767717,
        -0.047902 -0.030601 0.767717,
        0.227126 0.048492 0.767717,
        0.230260 0.015633 0.767717,
        0.230349 0.008193 0.767717,
        0.196003 -0.084360 0.767717,
        0.185090 -0.089859 0.767717,
        0.172626 -0.092879 0.767717,
        0.103336 -0.030601 0.767717,
        0.079111 0.008193 0.767717,
        0.077684 -0.018080 0.767717,
        0.163507 -0.093459 0.767717,
        0.149506 -0.091945 0.767717,
        0.138120 -0.087872 0.767717,
        -0.001733 -0.091945 0.767717,
        0.012269 -0.093459 0.767717,
        0.128255 -0.081328 0.767717,
        -0.050499 0.001867 0.767717,
        -0.050522 0.003541 0.767717,
        -0.049126 0.030742 0.767717,
        0.100739 0.001867 0.767717,
        0.100716 0.003541 0.767717,
        0.079022 0.015633 0.767717,
        0.102112 0.030742 0.767717,
        0.075887 0.048492 0.767717,
        0.106965 0.056555 0.767717,
        0.115061 0.076812 0.767717,
        0.590551 0.590551 0.748031,
        0.590551 -0.590551 0.748031,
        -0.590551 0.590551 0.748031,
        -0.590551 -0.590551 0.748031,
      ]
    }
    coordIndex [
      4, 5, 6, -1,
      6, 5, 7, -1,
      6, 7, 8, -1,
      9, 10, 11, -1,
      12, 8, 13, -1,
      13, 8, 14, -1,
      15, 16, 17, -1,
      17, 16, 5, -1,
      17, 5, 18, -1,
      19, 20, 21, -1,
      21, 20, 22, -1,
      11, 18, 9, -1,
      9, 18, 5, -1,
      9, 5, 23, -1,
      23, 5, 4, -1,
      23, 4, 14, -1,
      24, 25, 26, -1,
      27, 28, 29, -1,
      29, 28, 30, -1,
      29, 30, 31, -1,
      32, 33, 29, -1,
      29, 33, 34, -1,
      35, 36, 37, -1,
      37, 36, 38, -1,
      34, 39, 29, -1,
      29, 39, 38, -1,
      29, 38, 40, -1,
      40, 38, 36, -1,
      31, 41, 29, -1,
      29, 41, 42, -1,
      29, 42, 32, -1,
      25, 43, 26, -1,
      26, 43, 4, -1,
      26, 4, 44, -1,
      44, 4, 3, -1,
      44, 3, 45, -1,
      45, 3, 46, -1,
      19, 47, 20, -1,
      20, 47, 48, -1,
      20, 48, 49, -1,
      49, 48, 50, -1,
      49, 50, 51, -1,
      50, 52, 51, -1,
      51, 52, 53, -1,
      51, 53, 26, -1,
      26, 53, 54, -1,
      26, 54, 24, -1,
      43, 55, 4, -1,
      4, 55, 56, -1,
      4, 56, 57, -1,
      57, 58, 4, -1,
      4, 58, 59, -1,
      4, 59, 14, -1,
      14, 59, 60, -1,
      14, 60, 13, -1,
      13, 60, 61, -1,
      13, 61, 29, -1,
      29, 61, 62, -1,
      29, 62, 27, -1,
      20, 45, 22, -1,
      22, 45, 46, -1,
      22, 46, 63, -1,
      63, 46, 2, -1,
      63, 2, 64, -1,
      64, 2, 65, -1,
      64, 65, 66, -1,
      1, 67, 65, -1,
      65, 67, 6, -1,
      65, 6, 66, -1,
      66, 6, 8, -1,
      66, 8, 68, -1,
      68, 8, 12, -1,
      69, 70, 71, -1,
      72, 6, 73, -1,
      73, 6, 67, -1,
      73, 67, 74, -1,
      74, 67, 0, -1,
      74, 0, 75, -1,
      75, 0, 4, -1,
      71, 76, 69, -1,
      69, 76, 77, -1,
      69, 77, 78, -1,
      79, 80, 6, -1,
      6, 80, 81, -1,
      6, 81, 4, -1,
      4, 81, 82, -1,
      83, 84, 75, -1,
      75, 84, 85, -1,
      82, 86, 4, -1,
      4, 86, 87, -1,
      4, 87, 75, -1,
      75, 87, 88, -1,
      75, 88, 83, -1,
      78, 79, 69, -1,
      69, 79, 6, -1,
      69, 6, 89, -1,
      89, 6, 72, -1,
      89, 72, 90, -1,
      90, 72, 91, -1,
      85, 92, 75, -1,
      75, 92, 93, -1,
      75, 93, 69, -1,
      69, 93, 94, -1,
      69, 94, 70, -1,
      95, 96, 97, -1,
      97, 96, 98, -1,
      99, 100, 101, -1,
      102, 101, 103, -1,
      103, 101, 104, -1,
      103, 104, 105, -1,
      105, 104, 106, -1,
      102, 107, 108, -1,
      109, 110, 100, -1,
      111, 112, 98, -1,
      98, 112, 113, -1,
      98, 113, 97, -1,
      97, 113, 114, -1,
      97, 114, 104, -1,
      104, 114, 115, -1,
      104, 115, 106, -1,
      116, 117, 96, -1,
      99, 101, 118, -1,
      119, 120, 101, -1,
      101, 120, 121, -1,
      101, 121, 122, -1,
      102, 108, 101, -1,
      101, 108, 123, -1,
      101, 123, 118, -1,
      100, 110, 101, -1,
      101, 110, 124, -1,
      101, 124, 125, -1,
      126, 127, 128, -1,
      128, 127, 129, -1,
      128, 129, 130, -1,
      131, 132, 102, -1,
      102, 132, 133, -1,
      102, 133, 107, -1,
      100, 134, 109, -1,
      109, 134, 135, -1,
      109, 135, 136, -1,
      125, 137, 101, -1,
      101, 137, 138, -1,
      101, 138, 119, -1,
      139, 140, 95, -1,
      95, 140, 141, -1,
      95, 141, 142, -1,
      143, 144, 128, -1,
      128, 144, 145, -1,
      128, 145, 126, -1,
      117, 146, 96, -1,
      96, 146, 147, -1,
      96, 147, 148, -1,
      122, 149, 101, -1,
      101, 149, 150, -1,
      101, 150, 95, -1,
      95, 150, 151, -1,
      95, 151, 139, -1,
      142, 152, 95, -1,
      95, 152, 153, -1,
      95, 153, 154, -1,
      155, 156, 143, -1,
      143, 156, 157, -1,
      143, 157, 144, -1,
      154, 158, 95, -1,
      95, 158, 159, -1,
      95, 159, 160, -1,
      116, 96, 161, -1,
      161, 96, 95, -1,
      161, 95, 162, -1,
      162, 95, 160, -1,
      162, 160, 130, -1,
      130, 160, 163, -1,
      130, 163, 128, -1,
      148, 164, 96, -1,
      96, 164, 165, -1,
      96, 165, 102, -1,
      102, 165, 166, -1,
      102, 166, 131, -1,
      155, 167, 156, -1,
      156, 167, 168, -1,
      156, 168, 169, -1,
      169, 168, 170, -1,
      169, 170, 171, -1,
      171, 170, 172, -1,
      171, 172, 136, -1,
      136, 172, 173, -1,
      136, 173, 109, -1,
      3, 174, 46, -1,
      46, 174, 175, -1,
      46, 175, 2, -1,
      174, 3, 176, -1,
      176, 3, 4, -1,
      176, 4, 0, -1,
      176, 0, 177, -1,
      177, 0, 67, -1,
      177, 67, 1, -1,
      2, 175, 65, -1,
      65, 175, 177, -1,
      65, 177, 1, -1,
      176, 104, 174, -1,
      174, 104, 101, -1,
      177, 97, 176, -1,
      176, 97, 104, -1,
      95, 175, 101, -1,
      101, 175, 174, -1,
      175, 95, 177, -1,
      177, 95, 97, -1,
    ]
  }
}

Shape {
  appearance Appearance {
    material Material {
      diffuseColor 0.0000 0.0000 0.0000
      specularColor 0.0000 0.0000 0.0000
      ambientIntensity 0.2
      transparency 0.0000
      shininess 0.5
    }
  }
  geometry IndexedFaceSet {
    ccw TRUE
    solid FALSE
    coord DEF co Coordinate {
      point [
        -0.117740 -0.091058 0.767717,
        -0.141746 -0.091058 0.767717,
        0.031024 0.106687 0.767717,
        0.042633 0.102631 0.767717,
        -0.117740 0.108193 0.767717,
        -0.127080 0.108193 0.767717,
        -0.134071 0.102713 0.767717,
        -0.158815 0.088177 0.767717,
        -0.016604 0.098910 0.767717,
        -0.005463 0.104552 0.767717,
        0.123982 0.089604 0.767717,
        0.134635 0.098910 0.767717,
        -0.141746 0.076160 0.767717,
        -0.158619 0.064646 0.767717,
        -0.182248 0.054404 0.767717,
        -0.187357 0.052979 0.767717,
        -0.187357 0.076985 0.767717,
        -0.013119 -0.087872 0.767717,
        -0.022984 -0.081328 0.767717,
        0.016694 0.108193 0.767717,
        0.193871 0.102631 0.767717,
        0.204093 0.095853 0.767717,
        0.212029 0.087233 0.767717,
        0.220271 0.072427 0.767717,
        0.007388 0.107627 0.767717,
        0.145775 0.104552 0.767717,
        0.158626 0.107627 0.767717,
        0.054911 -0.075677 0.767717,
        0.044764 -0.084360 0.767717,
        0.118548 -0.070710 0.767717,
        0.033851 -0.089859 0.767717,
        0.021388 -0.092879 0.767717,
        -0.044274 0.056555 0.767717,
        -0.036178 0.076812 0.767717,
        -0.027256 0.089604 0.767717,
        0.052854 0.095853 0.767717,
        0.060790 0.087233 0.767717,
        0.069033 0.072427 0.767717,
        0.167933 0.108193 0.767717,
        0.182262 0.106687 0.767717,
        0.228923 -0.018080 0.767717,
        0.223895 -0.043111 0.767717,
        0.215464 -0.062978 0.767717,
        0.206150 -0.075677 0.767717,
        0.109934 -0.054801 0.767717,
        0.072656 -0.043111 0.767717,
        0.064225 -0.062978 0.767717,
        -0.032690 -0.070710 0.767717,
        -0.041304 -0.054801 0.767717,
        -0.047902 -0.030601 0.767717,
        0.227126 0.048492 0.767717,
        0.230260 0.015633 0.767717,
        0.230349 0.008193 0.767717,
        0.196003 -0.084360 0.767717,
        0.185090 -0.089859 0.767717,
        0.172626 -0.092879 0.767717,
        0.103336 -0.030601 0.767717,
        0.079111 0.008193 0.767717,
        0.077684 -0.018080 0.767717,
        0.163507 -0.093459 0.767717,
        0.149506 -0.091945 0.767717,
        0.138120 -0.087872 0.767717,
        -0.001733 -0.091945 0.767717,
        0.012269 -0.093459 0.767717,
        0.128255 -0.081328 0.767717,
        -0.050499 0.001867 0.767717,
        -0.050522 0.003541 0.767717,
        -0.049126 0.030742 0.767717,
        0.100739 0.001867 0.767717,
        0.100716 0.003541 0.767717,
        0.079022 0.015633 0.767717,
        0.102112 0.030742 0.767717,
        0.075887 0.048492 0.767717,
        0.106965 0.056555 0.767717,
        0.115061 0.076812 0.767717,
        0.100716 0.003541 0.767323,
        0.100739 0.001867 0.767323,
        0.103336 -0.030601 0.767323,
        0.109934 -0.054801 0.767323,
        0.118548 -0.070710 0.767323,
        0.128255 -0.081328 0.767323,
        0.138120 -0.087872 0.767323,
        0.149506 -0.091945 0.767323,
        0.163507 -0.093459 0.767323,
        0.167933 0.108193 0.767323,
        0.158626 0.107627 0.767323,
        0.145775 0.104552 0.767323,
        0.134635 0.098910 0.767323,
        0.123982 0.089604 0.767323,
        0.115061 0.076812 0.767323,
        0.106965 0.056555 0.767323,
        0.102112 0.030742 0.767323,
        0.230349 0.008193 0.767323,
        0.230260 0.015633 0.767323,
        0.227126 0.048492 0.767323,
        0.220271 0.072427 0.767323,
        0.212029 0.087233 0.767323,
        0.204093 0.095853 0.767323,
        0.193871 0.102631 0.767323,
        0.182262 0.106687 0.767323,
        0.172626 -0.092879 0.767323,
        0.185090 -0.089859 0.767323,
        0.196003 -0.084360 0.767323,
        0.206150 -0.075677 0.767323,
        0.215464 -0.062978 0.767323,
        0.223895 -0.043111 0.767323,
        0.228923 -0.018080 0.767323,
        0.196605 -0.047369 0.767323,
        0.191100 -0.058180 0.767323,
        0.185560 -0.064586 0.767323,
        0.179894 -0.068556 0.767323,
        0.173746 -0.070932 0.767323,
        0.134974 0.061522 0.767323,
        0.140860 0.072810 0.767323,
        0.201835 -0.026386 0.767323,
        0.203943 0.006017 0.767323,
        0.146416 0.079196 0.767323,
        0.152114 0.083174 0.767323,
        0.158360 0.085599 0.767323,
        0.166583 0.086587 0.767323,
        0.171592 0.086217 0.767323,
        0.177777 0.084409 0.767323,
        0.183244 0.081337 0.767323,
        0.188189 0.076672 0.767323,
        0.193077 0.069499 0.767323,
        0.197835 0.057968 0.767323,
        0.202492 0.034676 0.767323,
        0.129455 0.039657 0.767323,
        0.127133 0.005922 0.767323,
        0.127123 0.004741 0.767323,
        0.128547 -0.021895 0.767323,
        0.134033 -0.046272 0.767323,
        0.138811 -0.056273 0.767323,
        0.144214 -0.063247 0.767323,
        0.149791 -0.067608 0.767323,
        0.155767 -0.070354 0.767323,
        0.162471 -0.071686 0.767323,
        0.165833 -0.071853 0.767323,
        0.127123 0.004741 0.767717,
        0.127133 0.005922 0.767717,
        0.129455 0.039657 0.767717,
        0.134974 0.061522 0.767717,
        0.140860 0.072810 0.767717,
        0.146416 0.079196 0.767717,
        0.152114 0.083174 0.767717,
        0.158360 0.085599 0.767717,
        0.166583 0.086587 0.767717,
        0.171592 0.086217 0.767717,
        0.177777 0.084409 0.767717,
        0.183244 0.081337 0.767717,
        0.188189 0.076672 0.767717,
        0.193077 0.069499 0.767717,
        0.197835 0.057968 0.767717,
        0.202492 0.034676 0.767717,
        0.203943 0.006017 0.767717,
        0.201835 -0.026386 0.767717,
        0.196605 -0.047369 0.767717,
        0.191100 -0.058180 0.767717,
        0.185560 -0.064586 0.767717,
        0.179894 -0.068556 0.767717,
        0.173746 -0.070932 0.767717,
        0.165833 -0.071853 0.767717,
        0.162471 -0.071686 0.767717,
        0.155767 -0.070354 0.767717,
        0.149791 -0.067608 0.767717,
        0.144214 -0.063247 0.767717,
        0.138811 -0.056273 0.767717,
        0.134033 -0.046272 0.767717,
        0.128547 -0.021895 0.767717,
        -0.050522 0.003541 0.767323,
        -0.050499 0.001867 0.767323,
        -0.047902 -0.030601 0.767323,
        -0.041304 -0.054801 0.767323,
        -0.032690 -0.070710 0.767323,
        -0.022984 -0.081328 0.767323,
        -0.013119 -0.087872 0.767323,
        -0.001733 -0.091945 0.767323,
        0.012269 -0.093459 0.767323,
        0.016694 0.108193 0.767323,
        0.007388 0.107627 0.767323,
        -0.005463 0.104552 0.767323,
        -0.016604 0.098910 0.767323,
        -0.027256 0.089604 0.767323,
        -0.036178 0.076812 0.767323,
        -0.044274 0.056555 0.767323,
        -0.049126 0.030742 0.767323,
        0.079111 0.008193 0.767323,
        0.079022 0.015633 0.767323,
        0.075887 0.048492 0.767323,
        0.069033 0.072427 0.767323,
        0.060790 0.087233 0.767323,
        0.052854 0.095853 0.767323,
        0.042633 0.102631 0.767323,
        0.031024 0.106687 0.767323,
        0.021388 -0.092879 0.767323,
        0.033851 -0.089859 0.767323,
        0.044764 -0.084360 0.767323,
        0.054911 -0.075677 0.767323,
        0.064225 -0.062978 0.767323,
        0.072656 -0.043111 0.767323,
        0.077684 -0.018080 0.767323,
        0.045366 -0.047369 0.767323,
        0.039862 -0.058180 0.767323,
        0.034321 -0.064586 0.767323,
        0.028655 -0.068556 0.767323,
        0.022507 -0.070932 0.767323,
        -0.016265 0.061522 0.767323,
        -0.010379 0.072810 0.767323,
        0.050596 -0.026386 0.767323,
        0.052704 0.006017 0.767323,
        -0.004823 0.079196 0.767323,
        0.000876 0.083174 0.767323,
        0.007122 0.085599 0.767323,
        0.015344 0.086587 0.767323,
        0.020354 0.086217 0.767323,
        0.026538 0.084409 0.767323,
        0.032006 0.081337 0.767323,
        0.036950 0.076672 0.767323,
        0.041838 0.069499 0.767323,
        0.046596 0.057968 0.767323,
        0.051253 0.034676 0.767323,
        -0.021783 0.039657 0.767323,
        -0.024106 0.005922 0.767323,
        -0.024116 0.004741 0.767323,
        -0.022692 -0.021895 0.767323,
        -0.017205 -0.046272 0.767323,
        -0.012428 -0.056273 0.767323,
        -0.007025 -0.063247 0.767323,
        -0.001448 -0.067608 0.767323,
        0.004528 -0.070354 0.767323,
        0.011232 -0.071686 0.767323,
        0.014594 -0.071853 0.767323,
        -0.024116 0.004741 0.767717,
        -0.024106 0.005922 0.767717,
        -0.021783 0.039657 0.767717,
        -0.016265 0.061522 0.767717,
        -0.010379 0.072810 0.767717,
        -0.004823 0.079196 0.767717,
        0.000876 0.083174 0.767717,
        0.007122 0.085599 0.767717,
        0.015344 0.086587 0.767717,
        0.020354 0.086217 0.767717,
        0.026538 0.084409 0.767717,
        0.032006 0.081337 0.767717,
        0.036950 0.076672 0.767717,
        0.041838 0.069499 0.767717,
        0.046596 0.057968 0.767717,
        0.051253 0.034676 0.767717,
        0.052704 0.006017 0.767717,
        0.050596 -0.026386 0.767717,
        0.045366 -0.047369 0.767717,
        0.039862 -0.058180 0.767717,
        0.034321 -0.064586 0.767717,
        0.028655 -0.068556 0.767717,
        0.022507 -0.070932 0.767717,
        0.014594 -0.071853 0.767717,
        0.011232 -0.071686 0.767717,
        0.004528 -0.070354 0.767717,
        -0.001448 -0.067608 0.767717,
        -0.007025 -0.063247 0.767717,
        -0.012428 -0.056273 0.767717,
        -0.017205 -0.046272 0.767717,
        -0.022692 -0.021895 0.767717,
        -0.117740 -0.091058 0.767323,
        -0.141746 -0.091058 0.767323,
        -0.141746 0.076160 0.767323,
        -0.187357 0.052979 0.767323,
        -0.182248 0.054404 0.767323,
        -0.158619 0.064646 0.767323,
        -0.187357 0.076985 0.767323,
        -0.127080 0.108193 0.767323,
        -0.134071 0.102713 0.767323,
        -0.158815 0.088177 0.767323,
        -0.117740 0.108193 0.767323,
      ]
    }
    coordIndex [
      75, 69, 68, -1,
      75, 68, 76, -1,
      76, 68, 56, -1,
      76, 56, 77, -1,
      77, 56, 44, -1,
      77, 44, 78, -1,
      78, 44, 29, -1,
      78, 29, 79, -1,
      79, 29, 64, -1,
      79, 64, 80, -1,
      80, 64, 61, -1,
      80, 61, 81, -1,
      81, 61, 60, -1,
      81, 60, 82, -1,
      82, 60, 59, -1,
      82, 59, 83, -1,
      84, 38, 26, -1,
      84, 26, 85, -1,
      85, 26, 25, -1,
      85, 25, 86, -1,
      86, 25, 11, -1,
      86, 11, 87, -1,
      87, 11, 10, -1,
      87, 10, 88, -1,
      88, 10, 74, -1,
      88, 74, 89, -1,
      89, 74, 73, -1,
      89, 73, 90, -1,
      90, 73, 71, -1,
      90, 71, 91, -1,
      91, 71, 69, -1,
      91, 69, 75, -1,
      92, 52, 51, -1,
      92, 51, 93, -1,
      93, 51, 50, -1,
      93, 50, 94, -1,
      94, 50, 23, -1,
      94, 23, 95, -1,
      95, 23, 22, -1,
      95, 22, 96, -1,
      96, 22, 21, -1,
      96, 21, 97, -1,
      97, 21, 20, -1,
      97, 20, 98, -1,
      98, 20, 39, -1,
      98, 39, 99, -1,
      99, 39, 38, -1,
      99, 38, 84, -1,
      83, 59, 55, -1,
      83, 55, 100, -1,
      100, 55, 54, -1,
      100, 54, 101, -1,
      101, 54, 53, -1,
      101, 53, 102, -1,
      102, 53, 43, -1,
      102, 43, 103, -1,
      103, 43, 42, -1,
      103, 42, 104, -1,
      104, 42, 41, -1,
      104, 41, 105, -1,
      105, 41, 40, -1,
      105, 40, 106, -1,
      106, 40, 52, -1,
      106, 52, 92, -1,
      107, 108, 103, -1,
      103, 108, 102, -1,
      102, 108, 109, -1,
      102, 109, 101, -1,
      101, 109, 110, -1,
      101, 110, 100, -1,
      100, 110, 111, -1,
      100, 111, 83, -1,
      112, 113, 88, -1,
      103, 104, 107, -1,
      107, 104, 105, -1,
      107, 105, 114, -1,
      114, 105, 106, -1,
      114, 106, 115, -1,
      88, 113, 87, -1,
      87, 113, 116, -1,
      87, 116, 86, -1,
      86, 116, 117, -1,
      86, 117, 85, -1,
      85, 117, 118, -1,
      85, 118, 84, -1,
      84, 118, 119, -1,
      84, 119, 99, -1,
      119, 120, 99, -1,
      99, 120, 121, -1,
      99, 121, 98, -1,
      98, 121, 122, -1,
      98, 122, 97, -1,
      97, 122, 123, -1,
      97, 123, 96, -1,
      96, 123, 124, -1,
      96, 124, 95, -1,
      95, 124, 125, -1,
      95, 125, 94, -1,
      94, 125, 126, -1,
      94, 126, 93, -1,
      93, 126, 115, -1,
      93, 115, 92, -1,
      92, 115, 106, -1,
      88, 89, 112, -1,
      112, 89, 90, -1,
      112, 90, 127, -1,
      127, 90, 91, -1,
      127, 91, 128, -1,
      128, 91, 75, -1,
      128, 75, 129, -1,
      129, 75, 76, -1,
      129, 76, 130, -1,
      130, 76, 77, -1,
      130, 77, 131, -1,
      131, 77, 78, -1,
      131, 78, 132, -1,
      132, 78, 79, -1,
      132, 79, 133, -1,
      133, 79, 80, -1,
      133, 80, 134, -1,
      134, 80, 81, -1,
      134, 81, 135, -1,
      135, 81, 82, -1,
      135, 82, 136, -1,
      136, 82, 83, -1,
      136, 83, 137, -1,
      137, 83, 111, -1,
      129, 138, 139, -1,
      129, 139, 128, -1,
      128, 139, 140, -1,
      128, 140, 127, -1,
      127, 140, 141, -1,
      127, 141, 112, -1,
      112, 141, 142, -1,
      112, 142, 113, -1,
      113, 142, 143, -1,
      113, 143, 116, -1,
      116, 143, 144, -1,
      116, 144, 117, -1,
      117, 144, 145, -1,
      117, 145, 118, -1,
      118, 145, 146, -1,
      118, 146, 119, -1,
      119, 146, 147, -1,
      119, 147, 120, -1,
      120, 147, 148, -1,
      120, 148, 121, -1,
      121, 148, 149, -1,
      121, 149, 122, -1,
      122, 149, 150, -1,
      122, 150, 123, -1,
      123, 150, 151, -1,
      123, 151, 124, -1,
      124, 151, 152, -1,
      124, 152, 125, -1,
      125, 152, 153, -1,
      125, 153, 126, -1,
      126, 153, 154, -1,
      126, 154, 115, -1,
      115, 154, 155, -1,
      115, 155, 114, -1,
      114, 155, 156, -1,
      114, 156, 107, -1,
      107, 156, 157, -1,
      107, 157, 108, -1,
      108, 157, 158, -1,
      108, 158, 109, -1,
      109, 158, 159, -1,
      109, 159, 110, -1,
      110, 159, 160, -1,
      110, 160, 111, -1,
      111, 160, 161, -1,
      111, 161, 137, -1,
      137, 161, 162, -1,
      137, 162, 136, -1,
      136, 162, 163, -1,
      136, 163, 135, -1,
      135, 163, 164, -1,
      135, 164, 134, -1,
      134, 164, 165, -1,
      134, 165, 133, -1,
      133, 165, 166, -1,
      133, 166, 132, -1,
      132, 166, 167, -1,
      132, 167, 131, -1,
      131, 167, 168, -1,
      131, 168, 130, -1,
      130, 168, 138, -1,
      130, 138, 129, -1,
      169, 66, 65, -1,
      169, 65, 170, -1,
      170, 65, 49, -1,
      170, 49, 171, -1,
      171, 49, 48, -1,
      171, 48, 172, -1,
      172, 48, 47, -1,
      172, 47, 173, -1,
      173, 47, 18, -1,
      173, 18, 174, -1,
      174, 18, 17, -1,
      174, 17, 175, -1,
      175, 17, 62, -1,
      175, 62, 176, -1,
      176, 62, 63, -1,
      176, 63, 177, -1,
      178, 19, 24, -1,
      178, 24, 179, -1,
      179, 24, 9, -1,
      179, 9, 180, -1,
      180, 9, 8, -1,
      180, 8, 181, -1,
      181, 8, 34, -1,
      181, 34, 182, -1,
      182, 34, 33, -1,
      182, 33, 183, -1,
      183, 33, 32, -1,
      183, 32, 184, -1,
      184, 32, 67, -1,
      184, 67, 185, -1,
      185, 67, 66, -1,
      185, 66, 169, -1,
      186, 57, 70, -1,
      186, 70, 187, -1,
      187, 70, 72, -1,
      187, 72, 188, -1,
      188, 72, 37, -1,
      188, 37, 189, -1,
      189, 37, 36, -1,
      189, 36, 190, -1,
      190, 36, 35, -1,
      190, 35, 191, -1,
      191, 35, 3, -1,
      191, 3, 192, -1,
      192, 3, 2, -1,
      192, 2, 193, -1,
      193, 2, 19, -1,
      193, 19, 178, -1,
      177, 63, 31, -1,
      177, 31, 194, -1,
      194, 31, 30, -1,
      194, 30, 195, -1,
      195, 30, 28, -1,
      195, 28, 196, -1,
      196, 28, 27, -1,
      196, 27, 197, -1,
      197, 27, 46, -1,
      197, 46, 198, -1,
      198, 46, 45, -1,
      198, 45, 199, -1,
      199, 45, 58, -1,
      199, 58, 200, -1,
      200, 58, 57, -1,
      200, 57, 186, -1,
      201, 202, 197, -1,
      197, 202, 196, -1,
      196, 202, 203, -1,
      196, 203, 195, -1,
      195, 203, 204, -1,
      195, 204, 194, -1,
      194, 204, 205, -1,
      194, 205, 177, -1,
      206, 207, 182, -1,
      197, 198, 201, -1,
      201, 198, 199, -1,
      201, 199, 208, -1,
      208, 199, 200, -1,
      208, 200, 209, -1,
      182, 207, 181, -1,
      181, 207, 210, -1,
      181, 210, 180, -1,
      180, 210, 211, -1,
      180, 211, 179, -1,
      179, 211, 212, -1,
      179, 212, 178, -1,
      178, 212, 213, -1,
      178, 213, 193, -1,
      213, 214, 193, -1,
      193, 214, 215, -1,
      193, 215, 192, -1,
      192, 215, 216, -1,
      192, 216, 191, -1,
      191, 216, 217, -1,
      191, 217, 190, -1,
      190, 217, 218, -1,
      190, 218, 189, -1,
      189, 218, 219, -1,
      189, 219, 188, -1,
      188, 219, 220, -1,
      188, 220, 187, -1,
      187, 220, 209, -1,
      187, 209, 186, -1,
      186, 209, 200, -1,
      182, 183, 206, -1,
      206, 183, 184, -1,
      206, 184, 221, -1,
      221, 184, 185, -1,
      221, 185, 222, -1,
      222, 185, 169, -1,
      222, 169, 223, -1,
      223, 169, 170, -1,
      223, 170, 224, -1,
      224, 170, 171, -1,
      224, 171, 225, -1,
      225, 171, 172, -1,
      225, 172, 226, -1,
      226, 172, 173, -1,
      226, 173, 227, -1,
      227, 173, 174, -1,
      227, 174, 228, -1,
      228, 174, 175, -1,
      228, 175, 229, -1,
      229, 175, 176, -1,
      229, 176, 230, -1,
      230, 176, 177, -1,
      230, 177, 231, -1,
      231, 177, 205, -1,
      223, 232, 233, -1,
      223, 233, 222, -1,
      222, 233, 234, -1,
      222, 234, 221, -1,
      221, 234, 235, -1,
      221, 235, 206, -1,
      206, 235, 236, -1,
      206, 236, 207, -1,
      207, 236, 237, -1,
      207, 237, 210, -1,
      210, 237, 238, -1,
      210, 238, 211, -1,
      211, 238, 239, -1,
      211, 239, 212, -1,
      212, 239, 240, -1,
      212, 240, 213, -1,
      213, 240, 241, -1,
      213, 241, 214, -1,
      214, 241, 242, -1,
      214, 242, 215, -1,
      215, 242, 243, -1,
      215, 243, 216, -1,
      216, 243, 244, -1,
      216, 244, 217, -1,
      217, 244, 245, -1,
      217, 245, 218, -1,
      218, 245, 246, -1,
      218, 246, 219, -1,
      219, 246, 247, -1,
      219, 247, 220, -1,
      220, 247, 248, -1,
      220, 248, 209, -1,
      209, 248, 249, -1,
      209, 249, 208, -1,
      208, 249, 250, -1,
      208, 250, 201, -1,
      201, 250, 251, -1,
      201, 251, 202, -1,
      202, 251, 252, -1,
      202, 252, 203, -1,
      203, 252, 253, -1,
      203, 253, 204, -1,
      204, 253, 254, -1,
      204, 254, 205, -1,
      205, 254, 255, -1,
      205, 255, 231, -1,
      231, 255, 256, -1,
      231, 256, 230, -1,
      230, 256, 257, -1,
      230, 257, 229, -1,
      229, 257, 258, -1,
      229, 258, 228, -1,
      228, 258, 259, -1,
      228, 259, 227, -1,
      227, 259, 260, -1,
      227, 260, 226, -1,
      226, 260, 261, -1,
      226, 261, 225, -1,
      225, 261, 262, -1,
      225, 262, 224, -1,
      224, 262, 232, -1,
      224, 232, 223, -1,
      263, 264, 0, -1,
      0, 264, 1, -1,
      264, 265, 1, -1,
      1, 265, 12, -1,
      266, 15, 14, -1,
      266, 14, 267, -1,
      267, 14, 13, -1,
      267, 13, 268, -1,
      268, 13, 12, -1,
      268, 12, 265, -1,
      266, 269, 15, -1,
      15, 269, 16, -1,
      270, 5, 6, -1,
      270, 6, 271, -1,
      271, 6, 7, -1,
      271, 7, 272, -1,
      272, 7, 16, -1,
      272, 16, 269, -1,
      270, 273, 5, -1,
      5, 273, 4, -1,
      273, 263, 4, -1,
      4, 263, 0, -1,
      264, 263, 265, -1,
      265, 263, 273, -1,
      273, 270, 265, -1,
      265, 270, 271, -1,
      265, 271, 268, -1,
      268, 271, 272, -1,
      268, 272, 267, -1,
      267, 272, 269, -1,
      267, 269, 266, -1,
    ]
  }
}

Shape {
  appearance Appearance {
    material Material {
      diffuseColor 0.7529 0.7529 0.7529
      specularColor 0.3765 0.3765 0.3765
      ambientIntensity 0.2
      transparency 0.0000
      shininess 0.5
    }
  }
  geometry IndexedFaceSet {
    ccw TRUE
    solid FALSE
    coord DEF co Coordinate {
      point [
        0.127123 0.004741 0.767717,
        0.127133 0.005922 0.767717,
        0.129455 0.039657 0.767717,
        0.134974 0.061522 0.767717,
        0.140860 0.072810 0.767717,
        0.146416 0.079196 0.767717,
        0.152114 0.083174 0.767717,
        0.158360 0.085599 0.767717,
        0.166583 0.086587 0.767717,
        0.171592 0.086217 0.767717,
        0.177777 0.084409 0.767717,
        0.183244 0.081337 0.767717,
        0.188189 0.076672 0.767717,
        0.193077 0.069499 0.767717,
        0.197835 0.057968 0.767717,
        0.202492 0.034676 0.767717,
        0.203943 0.006017 0.767717,
        0.201835 -0.026386 0.767717,
        0.196605 -0.047369 0.767717,
        0.191100 -0.058180 0.767717,
        0.185560 -0.064586 0.767717,
        0.179894 -0.068556 0.767717,
        0.173746 -0.070932 0.767717,
        0.165833 -0.071853 0.767717,
        0.162471 -0.071686 0.767717,
        0.155767 -0.070354 0.767717,
        0.149791 -0.067608 0.767717,
        0.144214 -0.063247 0.767717,
        0.138811 -0.056273 0.767717,
        0.134033 -0.046272 0.767717,
        0.128547 -0.021895 0.767717,
        -0.024116 0.004741 0.767717,
        -0.024106 0.005922 0.767717,
        -0.021783 0.039657 0.767717,
        -0.016265 0.061522 0.767717,
        -0.010379 0.072810 0.767717,
        -0.004823 0.079196 0.767717,
        0.000876 0.083174 0.767717,
        0.007122 0.085599 0.767717,
        0.015344 0.086587 0.767717,
        0.020354 0.086217 0.767717,
        0.026538 0.084409 0.767717,
        0.032006 0.081337 0.767717,
        0.036950 0.076672 0.767717,
        0.041838 0.069499 0.767717,
        0.046596 0.057968 0.767717,
        0.051253 0.034676 0.767717,
        0.052704 0.006017 0.767717,
        0.050596 -0.026386 0.767717,
        0.045366 -0.047369 0.767717,
        0.039862 -0.058180 0.767717,
        0.034321 -0.064586 0.767717,
        0.028655 -0.068556 0.767717,
        0.022507 -0.070932 0.767717,
        0.014594 -0.071853 0.767717,
        0.011232 -0.071686 0.767717,
        0.004528 -0.070354 0.767717,
        -0.001448 -0.067608 0.767717,
        -0.007025 -0.063247 0.767717,
        -0.012428 -0.056273 0.767717,
        -0.017205 -0.046272 0.767717,
        -0.022692 -0.021895 0.767717,
      ]
    }
    coordIndex [
      17, 16, 23, -1,
      1, 16, 2, -1,
      2, 16, 15, -1,
      2, 15, 3, -1,
      17, 23, 18, -1,
      1, 0, 16, -1,
      16, 0, 30, -1,
      16, 30, 29, -1,
      6, 15, 7, -1,
      7, 15, 8, -1,
      6, 5, 15, -1,
      15, 5, 4, -1,
      15, 4, 3, -1,
      29, 28, 16, -1,
      16, 28, 27, -1,
      16, 27, 26, -1,
      26, 25, 16, -1,
      16, 25, 24, -1,
      16, 24, 23, -1,
      15, 14, 8, -1,
      8, 14, 13, -1,
      8, 13, 9, -1,
      9, 13, 12, -1,
      9, 12, 10, -1,
      10, 12, 11, -1,
      23, 22, 21, -1,
      21, 20, 23, -1,
      23, 20, 19, -1,
      23, 19, 18, -1,
      48, 47, 54, -1,
      32, 47, 33, -1,
      33, 47, 46, -1,
      33, 46, 34, -1,
      48, 54, 49, -1,
      32, 31, 47, -1,
      47, 31, 61, -1,
      47, 61, 60, -1,
      37, 46, 38, -1,
      38, 46, 39, -1,
      37, 36, 46, -1,
      46, 36, 35, -1,
      46, 35, 34, -1,
      60, 59, 47, -1,
      47, 59, 58, -1,
      47, 58, 57, -1,
      57, 56, 47, -1,
      47, 56, 55, -1,
      47, 55, 54, -1,
      46, 45, 39, -1,
      39, 45, 44, -1,
      39, 44, 40, -1,
      40, 44, 43, -1,
      40, 43, 41, -1,
      41, 43, 42, -1,
      54, 53, 52, -1,
      52, 51, 54, -1,
      54, 51, 50, -1,
      54, 50, 49, -1,
    ]
  }
}

Shape {
  appearance Appearance {
    material Material {
      diffuseColor 0.0000 0.0000 0.0000
      specularColor 0.0000 0.0000 0.0000
      ambientIntensity 0.2
      transparency 0.0000
      shininess 0.5
    }
  }
  geometry IndexedFaceSet {
    ccw TRUE
    solid FALSE
    coord DEF co Coordinate {
      point [
        -0.018895 -0.023561 0.000000,
        -0.018895 -0.032204 0.000000,
        0.023356 -0.032204 0.000000,
        -0.016974 0.037894 0.000000,
        0.012793 0.037894 0.000000,
        0.012793 0.011968 0.000000,
        0.038720 -0.028122 0.000000,
        0.038720 -0.019480 0.000000,
        0.023356 0.046537 0.000000,
        0.012793 0.003326 0.000000,
        0.012793 -0.023561 0.000000,
        -0.015054 0.003326 0.000000,
        -0.015054 0.011968 0.000000,
        0.077721 -0.029531 0.000000,
        0.104017 -0.032204 0.000000,
        0.070089 -0.032157 0.000000,
        0.065016 -0.032683 0.000000,
        -0.016974 0.046537 0.000000,
        0.093139 0.025798 0.000000,
        0.088524 0.033159 0.000000,
        0.133784 0.046537 0.000000,
        0.064913 0.037984 0.000000,
        0.070807 0.035857 0.000000,
        0.040131 -0.020262 0.000000,
        0.076257 0.032211 0.000000,
        0.081012 0.026962 0.000000,
        0.086732 0.006326 0.000000,
        0.085935 -0.002198 0.000000,
        0.083796 -0.008970 0.000000,
        0.066274 -0.023698 0.000000,
        0.058930 -0.024522 0.000000,
        0.072012 -0.021585 0.000000,
        0.076844 -0.018328 0.000000,
        0.080539 -0.014430 0.000000,
        0.048478 -0.023361 0.000000,
        0.084258 0.020882 0.000000,
        0.086357 0.012453 0.000000,
        0.081415 0.039996 0.000000,
        0.144347 0.046537 0.000000,
        0.144347 -0.032204 0.000000,
        0.084055 -0.025486 0.000000,
        0.089969 -0.019259 0.000000,
        0.104017 -0.023561 0.000000,
        0.094164 -0.011772 0.000000,
        0.133784 -0.023561 0.000000,
        0.096533 -0.003438 0.000000,
        0.097295 0.005681 0.000000,
        0.096162 0.016876 0.000000,
        0.073936 0.044301 0.000000,
        0.065158 0.046851 0.000000,
        0.057250 0.047497 0.000000,
        0.047824 0.046846 0.000000,
        0.038720 0.044376 0.000000,
        0.038720 0.033813 0.000000,
        0.047589 0.037611 0.000000,
        0.057160 0.038855 0.000000,
        0.060385 -0.033164 0.000000,
        0.058233 -0.033127 0.000000,
        0.055070 -0.032683 0.000000,
        0.047113 -0.031569 0.000000,
        -0.103396 -0.032204 0.000000,
        -0.093703 -0.010622 0.000000,
        -0.089187 -0.017665 0.000000,
        -0.162931 -0.032204 0.000000,
        -0.174455 -0.032204 0.000000,
        -0.143727 0.046537 0.000000,
        -0.133164 0.046537 0.000000,
        -0.082706 -0.023871 0.000000,
        -0.074485 -0.028649 0.000000,
        -0.065412 -0.031353 0.000000,
        -0.055669 -0.032204 0.000000,
        -0.034259 -0.032204 0.000000,
        -0.034259 0.046537 0.000000,
        -0.056480 0.046537 0.000000,
        -0.085720 0.036270 0.000000,
        -0.091289 0.030096 0.000000,
        -0.094948 0.023324 0.000000,
        -0.067855 0.045321 0.000000,
        -0.077068 0.042086 0.000000,
        -0.085638 0.036342 0.000000,
        -0.114919 -0.032204 0.000000,
        -0.122436 -0.010118 0.000000,
        -0.154965 -0.010118 0.000000,
        -0.097063 0.015566 0.000000,
        -0.097635 0.008157 0.000000,
        -0.096530 -0.002381 0.000000,
        -0.143727 0.046537 0.000394,
        -0.174455 -0.032204 0.000394,
        -0.162931 -0.032204 0.000394,
        -0.154965 -0.010118 0.000394,
        -0.122436 -0.010118 0.000394,
        -0.114919 -0.032204 0.000394,
        -0.103396 -0.032204 0.000394,
        -0.133164 0.046537 0.000394,
        -0.125092 -0.001476 0.000394,
        -0.151424 -0.001476 0.000394,
        -0.136840 0.031413 0.000394,
        -0.137598 0.034144 0.000394,
        -0.138100 0.036934 0.000394,
        -0.138356 0.036934 0.000394,
        -0.138869 0.034152 0.000394,
        -0.139570 0.031413 0.000394,
        -0.125092 -0.001476 0.000000,
        -0.151424 -0.001476 0.000000,
        -0.136840 0.031413 0.000000,
        -0.137598 0.034144 -0.000000,
        -0.138100 0.036934 0.000000,
        -0.138356 0.036934 0.000000,
        -0.138869 0.034152 0.000000,
        -0.139570 0.031413 0.000000,
        -0.055669 -0.032204 0.000394,
        -0.034259 -0.032204 0.000394,
        -0.034259 0.046537 0.000394,
        -0.056480 0.046537 0.000394,
        -0.097635 0.008157 0.000394,
        -0.097063 0.015566 0.000394,
        -0.094948 0.023324 0.000394,
        -0.091289 0.030096 0.000394,
        -0.085720 0.036270 0.000394,
        -0.085638 0.036342 0.000394,
        -0.077068 0.042086 0.000394,
        -0.067855 0.045321 0.000394,
        -0.065412 -0.031353 0.000394,
        -0.074485 -0.028649 0.000394,
        -0.082706 -0.023871 0.000394,
        -0.089187 -0.017665 0.000394,
        -0.093703 -0.010622 0.000394,
        -0.096530 -0.002381 0.000394,
        -0.081830 0.026853 0.000394,
        -0.078005 0.030914 0.000394,
        -0.072254 0.034630 0.000394,
        -0.065754 0.036904 0.000394,
        -0.056434 0.037894 0.000394,
        -0.044821 0.037894 0.000394,
        -0.044821 -0.023561 0.000394,
        -0.055999 -0.023561 0.000394,
        -0.064306 -0.022788 0.000394,
        -0.070933 -0.020720 0.000394,
        -0.076302 -0.017531 0.000394,
        -0.080719 -0.013169 0.000394,
        -0.084040 -0.007740 0.000394,
        -0.086349 -0.000339 0.000394,
        -0.087072 0.007932 0.000394,
        -0.086403 0.015769 0.000394,
        -0.084565 0.021996 0.000394,
        -0.056434 0.037894 0.000000,
        -0.044821 0.037894 0.000000,
        -0.065754 0.036904 0.000000,
        -0.072254 0.034630 -0.000000,
        -0.078005 0.030914 -0.000000,
        -0.081830 0.026853 0.000000,
        -0.084565 0.021996 -0.000000,
        -0.086403 0.015769 0.000000,
        -0.087072 0.007932 0.000000,
        -0.086349 -0.000339 0.000000,
        -0.084040 -0.007740 0.000000,
        -0.080719 -0.013169 0.000000,
        -0.076302 -0.017531 0.000000,
        -0.070933 -0.020720 0.000000,
        -0.064306 -0.022788 0.000000,
        -0.055999 -0.023561 0.000000,
        -0.044821 -0.023561 0.000000,
        -0.018895 -0.023561 0.000394,
        -0.018895 -0.032204 0.000394,
        0.023356 -0.032204 0.000394,
        0.023356 0.046537 0.000394,
        -0.016974 0.046537 0.000394,
        -0.016974 0.037894 0.000394,
        0.012793 0.037894 0.000394,
        0.012793 0.011968 0.000394,
        -0.015054 0.011968 0.000394,
        -0.015054 0.003326 0.000394,
        0.012793 0.003326 0.000394,
        0.012793 -0.023561 0.000394,
        0.038720 -0.019480 0.000394,
        0.038720 -0.028122 0.000394,
        0.047113 -0.031569 0.000394,
        0.060385 -0.033164 0.000394,
        0.058233 -0.033127 0.000394,
        0.070089 -0.032157 0.000394,
        0.077721 -0.029531 0.000394,
        0.084055 -0.025486 0.000394,
        0.089969 -0.019259 0.000394,
        0.094164 -0.011772 0.000394,
        0.096533 -0.003438 0.000394,
        0.097295 0.005681 0.000394,
        0.057250 0.047497 0.000394,
        0.065158 0.046851 0.000394,
        0.073936 0.044301 0.000394,
        0.081415 0.039996 0.000394,
        0.088524 0.033159 0.000394,
        0.093139 0.025798 0.000394,
        0.096162 0.016876 0.000394,
        0.038720 0.044376 0.000394,
        0.047824 0.046846 0.000394,
        0.038720 0.033813 0.000394,
        0.057160 0.038855 0.000394,
        0.047589 0.037611 0.000394,
        0.086732 0.006326 0.000394,
        0.086357 0.012453 0.000394,
        0.084258 0.020882 0.000394,
        0.081012 0.026962 0.000394,
        0.076257 0.032211 0.000394,
        0.070807 0.035857 0.000394,
        0.064913 0.037984 0.000394,
        0.058930 -0.024522 0.000394,
        0.066274 -0.023698 0.000394,
        0.072012 -0.021585 0.000394,
        0.076844 -0.018328 0.000394,
        0.080539 -0.014430 0.000394,
        0.083796 -0.008970 0.000394,
        0.085935 -0.002198 0.000394,
        0.040131 -0.020262 0.000394,
        0.048478 -0.023361 0.000394,
        0.104017 -0.023561 0.000394,
        0.104017 -0.032204 0.000394,
        0.144347 -0.032204 0.000394,
        0.144347 0.046537 0.000394,
        0.133784 0.046537 0.000394,
        0.133784 -0.023561 0.000394,
      ]
    }
    coordIndex [
      86, 87, 65, -1,
      65, 87, 64, -1,
      87, 88, 64, -1,
      64, 88, 63, -1,
      88, 89, 63, -1,
      63, 89, 82, -1,
      89, 90, 82, -1,
      82, 90, 81, -1,
      90, 91, 81, -1,
      81, 91, 80, -1,
      91, 92, 80, -1,
      80, 92, 60, -1,
      92, 93, 60, -1,
      60, 93, 66, -1,
      93, 86, 66, -1,
      66, 86, 65, -1,
      94, 90, 95, -1,
      95, 90, 89, -1,
      96, 93, 94, -1,
      94, 93, 92, -1,
      94, 92, 90, -1,
      90, 92, 91, -1,
      96, 97, 93, -1,
      93, 97, 98, -1,
      93, 98, 86, -1,
      86, 98, 99, -1,
      86, 99, 100, -1,
      100, 101, 86, -1,
      86, 101, 95, -1,
      86, 95, 87, -1,
      87, 95, 89, -1,
      87, 89, 88, -1,
      94, 95, 102, -1,
      102, 95, 103, -1,
      96, 94, 104, -1,
      104, 94, 102, -1,
      96, 104, 105, -1,
      96, 105, 97, -1,
      97, 105, 106, -1,
      97, 106, 98, -1,
      99, 98, 107, -1,
      107, 98, 106, -1,
      99, 107, 108, -1,
      99, 108, 100, -1,
      100, 108, 109, -1,
      100, 109, 101, -1,
      95, 101, 103, -1,
      103, 101, 109, -1,
      110, 111, 70, -1,
      70, 111, 71, -1,
      111, 112, 71, -1,
      71, 112, 72, -1,
      112, 113, 72, -1,
      72, 113, 73, -1,
      114, 84, 83, -1,
      114, 83, 115, -1,
      115, 83, 76, -1,
      115, 76, 116, -1,
      116, 76, 75, -1,
      116, 75, 117, -1,
      117, 75, 74, -1,
      117, 74, 118, -1,
      118, 74, 79, -1,
      118, 79, 119, -1,
      119, 79, 78, -1,
      119, 78, 120, -1,
      120, 78, 77, -1,
      120, 77, 121, -1,
      121, 77, 73, -1,
      121, 73, 113, -1,
      110, 70, 69, -1,
      110, 69, 122, -1,
      122, 69, 68, -1,
      122, 68, 123, -1,
      123, 68, 67, -1,
      123, 67, 124, -1,
      124, 67, 62, -1,
      124, 62, 125, -1,
      125, 62, 61, -1,
      125, 61, 126, -1,
      126, 61, 85, -1,
      126, 85, 127, -1,
      127, 85, 84, -1,
      127, 84, 114, -1,
      116, 117, 128, -1,
      128, 117, 118, -1,
      128, 118, 129, -1,
      129, 118, 119, -1,
      129, 119, 130, -1,
      130, 119, 120, -1,
      130, 120, 131, -1,
      131, 120, 121, -1,
      131, 121, 132, -1,
      132, 121, 113, -1,
      132, 113, 133, -1,
      133, 113, 112, -1,
      133, 112, 134, -1,
      134, 112, 111, -1,
      134, 111, 135, -1,
      135, 111, 110, -1,
      135, 110, 136, -1,
      136, 110, 122, -1,
      136, 122, 137, -1,
      137, 122, 123, -1,
      137, 123, 138, -1,
      138, 123, 124, -1,
      138, 124, 139, -1,
      139, 124, 125, -1,
      139, 125, 140, -1,
      140, 125, 126, -1,
      140, 126, 141, -1,
      141, 126, 127, -1,
      141, 127, 142, -1,
      142, 127, 114, -1,
      142, 114, 143, -1,
      143, 114, 115, -1,
      143, 115, 144, -1,
      144, 115, 116, -1,
      144, 116, 128, -1,
      132, 133, 145, -1,
      145, 133, 146, -1,
      132, 145, 147, -1,
      132, 147, 131, -1,
      131, 147, 148, -1,
      131, 148, 130, -1,
      130, 148, 149, -1,
      130, 149, 129, -1,
      129, 149, 150, -1,
      129, 150, 128, -1,
      128, 150, 151, -1,
      128, 151, 144, -1,
      144, 151, 152, -1,
      144, 152, 143, -1,
      143, 152, 153, -1,
      143, 153, 142, -1,
      142, 153, 154, -1,
      142, 154, 141, -1,
      141, 154, 155, -1,
      141, 155, 140, -1,
      140, 155, 156, -1,
      140, 156, 139, -1,
      139, 156, 157, -1,
      139, 157, 138, -1,
      138, 157, 158, -1,
      138, 158, 137, -1,
      137, 158, 159, -1,
      137, 159, 136, -1,
      136, 159, 160, -1,
      136, 160, 135, -1,
      134, 135, 161, -1,
      161, 135, 160, -1,
      133, 134, 146, -1,
      146, 134, 161, -1,
      162, 163, 0, -1,
      0, 163, 1, -1,
      163, 164, 1, -1,
      1, 164, 2, -1,
      164, 165, 2, -1,
      2, 165, 8, -1,
      165, 166, 8, -1,
      8, 166, 17, -1,
      166, 167, 17, -1,
      17, 167, 3, -1,
      167, 168, 3, -1,
      3, 168, 4, -1,
      168, 169, 4, -1,
      4, 169, 5, -1,
      169, 170, 5, -1,
      5, 170, 12, -1,
      170, 171, 12, -1,
      12, 171, 11, -1,
      171, 172, 11, -1,
      11, 172, 9, -1,
      172, 173, 9, -1,
      9, 173, 10, -1,
      173, 162, 10, -1,
      10, 162, 0, -1,
      164, 163, 162, -1,
      162, 173, 164, -1,
      164, 173, 172, -1,
      164, 172, 165, -1,
      167, 166, 168, -1,
      168, 166, 165, -1,
      168, 165, 169, -1,
      169, 165, 172, -1,
      169, 172, 170, -1,
      170, 172, 171, -1,
      174, 175, 7, -1,
      7, 175, 6, -1,
      6, 175, 176, -1,
      177, 56, 57, -1,
      177, 57, 178, -1,
      178, 57, 58, -1,
      178, 58, 176, -1,
      176, 58, 59, -1,
      176, 59, 6, -1,
      56, 177, 16, -1,
      16, 177, 179, -1,
      16, 179, 15, -1,
      15, 179, 180, -1,
      15, 180, 13, -1,
      13, 180, 181, -1,
      13, 181, 40, -1,
      40, 181, 182, -1,
      40, 182, 41, -1,
      41, 182, 183, -1,
      41, 183, 43, -1,
      43, 183, 184, -1,
      43, 184, 45, -1,
      45, 184, 185, -1,
      45, 185, 46, -1,
      186, 50, 49, -1,
      186, 49, 187, -1,
      187, 49, 48, -1,
      187, 48, 188, -1,
      188, 48, 37, -1,
      188, 37, 189, -1,
      189, 37, 19, -1,
      189, 19, 190, -1,
      190, 19, 18, -1,
      190, 18, 191, -1,
      191, 18, 47, -1,
      191, 47, 192, -1,
      192, 47, 46, -1,
      192, 46, 185, -1,
      193, 52, 51, -1,
      193, 51, 194, -1,
      194, 51, 50, -1,
      194, 50, 186, -1,
      193, 195, 52, -1,
      52, 195, 53, -1,
      196, 55, 54, -1,
      196, 54, 197, -1,
      197, 54, 53, -1,
      197, 53, 195, -1,
      198, 26, 36, -1,
      198, 36, 199, -1,
      199, 36, 35, -1,
      199, 35, 200, -1,
      200, 35, 25, -1,
      200, 25, 201, -1,
      201, 25, 24, -1,
      201, 24, 202, -1,
      202, 24, 22, -1,
      202, 22, 203, -1,
      203, 22, 21, -1,
      203, 21, 204, -1,
      204, 21, 55, -1,
      204, 55, 196, -1,
      205, 30, 29, -1,
      205, 29, 206, -1,
      206, 29, 31, -1,
      206, 31, 207, -1,
      207, 31, 32, -1,
      207, 32, 208, -1,
      208, 32, 33, -1,
      208, 33, 209, -1,
      209, 33, 28, -1,
      209, 28, 210, -1,
      210, 28, 27, -1,
      210, 27, 211, -1,
      211, 27, 26, -1,
      211, 26, 198, -1,
      174, 7, 23, -1,
      174, 23, 212, -1,
      212, 23, 34, -1,
      212, 34, 213, -1,
      213, 34, 30, -1,
      213, 30, 205, -1,
      206, 177, 205, -1,
      205, 177, 178, -1,
      205, 178, 213, -1,
      213, 178, 176, -1,
      213, 176, 212, -1,
      212, 176, 175, -1,
      212, 175, 174, -1,
      195, 193, 197, -1,
      197, 193, 194, -1,
      197, 194, 196, -1,
      196, 194, 186, -1,
      196, 186, 204, -1,
      204, 186, 187, -1,
      204, 187, 203, -1,
      203, 187, 188, -1,
      203, 188, 202, -1,
      202, 188, 189, -1,
      202, 189, 201, -1,
      201, 189, 190, -1,
      201, 190, 200, -1,
      200, 190, 191, -1,
      200, 191, 199, -1,
      199, 191, 192, -1,
      199, 192, 198, -1,
      198, 192, 185, -1,
      198, 185, 211, -1,
      211, 185, 184, -1,
      211, 184, 210, -1,
      210, 184, 183, -1,
      210, 183, 209, -1,
      209, 183, 182, -1,
      209, 182, 208, -1,
      208, 182, 181, -1,
      208, 181, 207, -1,
      207, 181, 180, -1,
      207, 180, 206, -1,
      206, 180, 179, -1,
      206, 179, 177, -1,
      214, 215, 42, -1,
      42, 215, 14, -1,
      215, 216, 14, -1,
      14, 216, 39, -1,
      216, 217, 39, -1,
      39, 217, 38, -1,
      217, 218, 38, -1,
      38, 218, 20, -1,
      218, 219, 20, -1,
      20, 219, 44, -1,
      219, 214, 44, -1,
      44, 214, 42, -1,
      218, 217, 219, -1,
      219, 217, 216, -1,
      219, 216, 214, -1,
      214, 216, 215, -1,
    ]
  }
}

Shape {
  appearance Appearance {
    material Material {
      diffuseColor 0.7529 0.7529 0.7529
      specularColor 0.3765 0.3765 0.3765
      ambientIntensity 0.2
      transparency 0.0000
      shininess 0.5
    }
  }
  geometry IndexedFaceSet {
    ccw TRUE
    solid FALSE
    coord DEF co Coordinate {
      point [
        -0.125092 -0.001476 0.000000,
        -0.151424 -0.001476 0.000000,
        -0.136840 0.031413 0.000000,
        -0.137598 0.034144 -0.000000,
        -0.138100 0.036934 0.000000,
        -0.138356 0.036934 0.000000,
        -0.138869 0.034152 0.000000,
        -0.139570 0.031413 0.000000,
        -0.056434 0.037894 0.000000,
        -0.044821 0.037894 0.000000,
        -0.065754 0.036904 0.000000,
        -0.072254 0.034630 -0.000000,
        -0.078005 0.030914 -0.000000,
        -0.081830 0.026853 0.000000,
        -0.084565 0.021996 -0.000000,
        -0.086403 0.015769 0.000000,
        -0.087072 0.007932 0.000000,
        -0.086349 -0.000339 0.000000,
        -0.084040 -0.007740 0.000000,
        -0.080719 -0.013169 0.000000,
        -0.076302 -0.017531 0.000000,
        -0.070933 -0.020720 0.000000,
        -0.064306 -0.022788 0.000000,
        -0.055999 -0.023561 0.000000,
        -0.044821 -0.023561 0.000000,
      ]
    }
    coordIndex [
      0, 1, 2, -1,
      2, 1, 7, -1,
      2, 7, 3, -1,
      3, 7, 6, -1,
      3, 6, 4, -1,
      4, 6, 5, -1,
      9, 24, 8, -1,
      8, 24, 23, -1,
      8, 23, 22, -1,
      16, 15, 8, -1,
      8, 15, 14, -1,
      8, 14, 10, -1,
      22, 21, 8, -1,
      8, 21, 20, -1,
      8, 20, 19, -1,
      19, 18, 8, -1,
      8, 18, 17, -1,
      8, 17, 16, -1,
      13, 12, 14, -1,
      14, 12, 11, -1,
      14, 11, 10, -1,
    ]
  }
}
